HIERARCHY
ROOT Hips
{
	OFFSET 0.000000 0.000000 0.000000
	CHANNELS 6 Xposition Yposition Zposition Zrotation Yrotation Xrotation 
	JOINT LHipJoint
	{
		OFFSET 0.000000 0.000000 0.000000
		CHANNELS 3 Zrotation Yrotation Xrotation
		JOINT LeftUpLeg
		{
			OFFSET 1.363060 -1.794630 0.839290
			CHANNELS 3 Zrotation Yrotation Xrotation
			JOINT LeftLeg
			{
				OFFSET 2.448110 -6.726130 0.000000
				CHANNELS 3 Zrotation Yrotation Xrotation
				JOINT LeftFoot
				{
					OFFSET 2.562200 -7.039590 0.000000
					CHANNELS 3 Zrotation Yrotation Xrotation
					JOINT LeftToeBase
					{
						OFFSET 0.157640 -0.433110 2.322550
						CHANNELS 3 Zrotation Yrotation Xrotation
						End Site
						{
							OFFSET 0.000000 0.000000 0.000000
						}
					}
				}
			}
		}
	}
	JOINT RHipJoint
	{
		OFFSET 0.000000 0.000000 0.000000
		CHANNELS 3 Zrotation Yrotation Xrotation
		JOINT RightUpLeg
		{
			OFFSET -1.305520 -1.794630 0.839290
			CHANNELS 3 Zrotation Yrotation Xrotation
			JOINT RightLeg
			{
				OFFSET -2.542530 -6.985550 0.000000
				CHANNELS 3 Zrotation Yrotation Xrotation
				JOINT RightFoot
				{
					OFFSET -2.568260 -7.056230 0.000000
					CHANNELS 3 Zrotation Yrotation Xrotation
					JOINT RightToeBase
					{
						OFFSET -0.164730 -0.452590 2.363150
						CHANNELS 3 Zrotation Yrotation Xrotation
						End Site
						{
							OFFSET 0.000000 0.000000 0.000000
						}
					}
				}
			}
		}
	}
	JOINT LowerBack
	{
		OFFSET 0.000000 0.000000 0.000000
		CHANNELS 3 Zrotation Yrotation Xrotation
		JOINT Spine
		{
			OFFSET 0.028270 2.035590 -0.193380
			CHANNELS 3 Zrotation Yrotation Xrotation
			JOINT Spine1
			{
				OFFSET 0.056720 2.048850 -0.042750
				CHANNELS 3 Zrotation Yrotation Xrotation
				JOINT Neck
				{
					OFFSET 0.000000 0.000000 0.000000
					CHANNELS 3 Zrotation Yrotation Xrotation
					JOINT Neck1
					{
						OFFSET -0.054170 1.746240 0.172020
						CHANNELS 3 Zrotation Yrotation Xrotation
						JOINT Head
						{
							OFFSET 0.104070 1.761360 -0.123970
							CHANNELS 3 Zrotation Yrotation Xrotation
							End Site
							{
								OFFSET 0.000000 0.000000 0.000000
							}
						}
					}
				}
				JOINT LeftShoulder
				{
					OFFSET 0.000000 0.000000 0.000000
					CHANNELS 3 Zrotation Yrotation Xrotation
					JOINT LeftArm
					{
						OFFSET 3.362410 1.200890 -0.311210
						CHANNELS 3 Zrotation Yrotation Xrotation
						JOINT LeftForeArm
						{
							OFFSET 4.983000 -0.000000 -0.000000
							CHANNELS 3 Zrotation Yrotation Xrotation
							JOINT LeftHand
							{
								OFFSET 3.483560 -0.000000 -0.000000
								CHANNELS 3 Zrotation Yrotation Xrotation
								JOINT LeftFingerBase
								{
									OFFSET 0.000000 0.000000 0.000000
									CHANNELS 3 Zrotation Yrotation Xrotation
									JOINT LeftHandIndex1
									{
										OFFSET 0.715260 -0.000000 -0.000000
										CHANNELS 3 Zrotation Yrotation Xrotation
										End Site
										{
											OFFSET 0.000000 0.000000 0.000000
										}
									}
								}
								JOINT LThumb
								{
									OFFSET 0.000000 0.000000 0.000000
									CHANNELS 3 Zrotation Yrotation Xrotation
									End Site
									{
										OFFSET 0.000000 0.000000 0.000000
									}
								}
							}
						}
					}
				}
				JOINT RightShoulder
				{
					OFFSET 0.000000 0.000000 0.000000
					CHANNELS 3 Zrotation Yrotation Xrotation
					JOINT RightArm
					{
						OFFSET -3.136600 1.374050 -0.404650
						CHANNELS 3 Zrotation Yrotation Xrotation
						JOINT RightForeArm
						{
							OFFSET -5.241900 -0.000000 -0.000000
							CHANNELS 3 Zrotation Yrotation Xrotation
							JOINT RightHand
							{
								OFFSET -3.444170 -0.000000 -0.000000
								CHANNELS 3 Zrotation Yrotation Xrotation
								JOINT RightFingerBase
								{
									OFFSET 0.000000 0.000000 0.000000
									CHANNELS 3 Zrotation Yrotation Xrotation
									JOINT RightHandIndex1
									{
										OFFSET -0.622530 -0.000000 -0.000000
										CHANNELS 3 Zrotation Yrotation Xrotation
										End Site
										{
											OFFSET 0.000000 0.000000 0.000000
										}
									}
								}
								JOINT RThumb
								{
									OFFSET 0.000000 0.000000 0.000000
									CHANNELS 3 Zrotation Yrotation Xrotation
									End Site
									{
										OFFSET 0.000000 0.000000 0.000000
									}
								}
							}
						}
					}
				}
			}
		}
	}
}
MOTION
Frames: 12
Frame Time: 0.008333
-1.259411 17.024297 -40.817002 2.448024 -4.276622 19.493958 -1.156408 -3.266375 -4.650872 -15.807521 -6.674515 -46.090859 0.335762 10.694425 27.155958 0.579690 -1.287152 7.247699 0.683600 -5.286400 -14.727200 0.000974 0.980798 -0.925953 12.718549 -1.530579 -4.761097 -4.013989 -12.821725 40.104110 -0.786718 10.589663 13.522956 -1.489200 7.709300 -21.834700 -5.045509 2.109913 -11.055188 -0.573052 3.281630 -9.344558 0.015987 1.861088 1.919718 -0.716223 -1.704900 -8.907764 2.902571 -2.420495 10.078705 -0.544200 -0.983900 3.091100 12.977065 8.081274 0.997319 -102.102159 24.414439 -33.657447 2.203204 -8.895053 0.060921 -1.271856 0.043673 56.289438 8.075122 -15.856362 -2.267600 -7.125000 0.000000 0.000000 -12.662000 15.270200 9.108700 -13.192612 -7.304100 -0.325495 95.606410 4.424421 34.541898 -35.758116 51.333133 -15.522485 0.206279 -1.608279 -14.396516 -19.663117 -36.594731 11.447400 7.125000 0.000000 0.000000 17.931600 -65.673600 -9.083200
-1.252058 17.024297 -40.699412 2.662029 -4.074150 19.356231 -1.148217 -3.224896 -4.584013 -16.121608 -6.886357 -45.960744 0.471718 10.913823 27.862874 0.617067 -1.772583 6.806492 0.609748 -4.987352 -13.874641 -0.029456 0.993592 -0.957946 12.549849 -1.477206 -5.196943 -4.361205 -13.191142 41.501870 -0.804082 10.158095 14.638573 -1.402110 7.485853 -21.165069 -5.369604 2.031472 -10.479918 -0.610422 3.196089 -9.527817 0.025805 1.841521 1.237627 -0.752622 -1.760288 -8.738250 3.018182 -2.515194 10.193792 -0.488504 -1.024703 3.142305 12.924961 8.027415 0.957176 -101.897919 24.783709 -34.157315 2.290370 -9.030636 0.031116 -1.239049 0.060647 56.568301 7.761892 -15.395610 -2.124955 -7.125000 0.000000 0.000000 -12.894950 15.705936 9.158203 -13.162648 -7.234939 -0.297989 95.726001 3.309430 34.148085 -36.078825 51.494679 -15.717920 0.218840 -1.604480 -14.495868 -19.596560 -36.947894 11.509715 7.125000 0.000000 0.000000 18.365870 -65.986879 -9.445462
-1.244706 17.024297 -40.581822 2.876033 -3.871678 19.218504 -1.140026 -3.183417 -4.517154 -16.435694 -7.098200 -45.830629 0.607674 11.133221 28.569790 0.654444 -2.258013 6.365285 0.535896 -4.688304 -13.022082 -0.059886 1.006386 -0.989938 12.381150 -1.423833 -5.632788 -4.708421 -13.560560 42.899631 -0.821446 9.726526 15.754190 -1.315019 7.262406 -20.495437 -5.693699 1.953031 -9.904648 -0.647792 3.110548 -9.711076 0.035623 1.821953 0.555536 -0.789021 -1.815676 -8.568737 3.133794 -2.609893 10.308879 -0.432808 -1.065506 3.193509 12.872856 7.973556 0.917032 -101.693679 25.152979 -34.657182 2.377536 -9.166219 0.001311 -1.206242 0.077621 56.847164 7.448661 -14.934859 -1.982310 -7.125000 0.000000 0.000000 -13.127900 16.141671 9.207705 -13.132684 -7.165778 -0.270482 95.845593 2.194439 33.754273 -36.399533 51.656225 -15.913355 0.231402 -1.600680 -14.595219 -19.530002 -37.301058 11.572031 7.125000 0.000000 0.000000 18.800140 -66.300159 -9.807724
-1.238340 17.028470 -40.468540 3.048910 -3.718422 19.072140 -1.139892 -3.151850 -4.474219 -16.692987 -7.247854 -45.595199 0.721292 11.307847 29.136908 0.664673 -2.485507 5.994697 0.469827 -4.384026 -12.161490 -0.094174 1.028540 -1.049812 12.254816 -1.297410 -6.081771 -5.069533 -13.918405 44.294453 -0.865940 9.325705 17.017279 -1.201820 6.945738 -19.558526 -5.982877 1.845757 -9.844374 -0.651725 3.031243 -9.649775 0.153268 1.778389 0.676450 -0.862061 -1.824855 -8.616165 3.247340 -2.630955 10.249673 -0.373304 -1.075681 3.171994 12.881237 7.959921 0.917282 -101.722337 24.881100 -35.218019 2.409615 -9.234930 -0.002387 -1.210835 0.095619 57.073942 7.282564 -15.076196 -1.963599 -7.125000 0.000000 0.000000 -13.224114 16.008453 9.319258 -13.140674 -7.165433 -0.242365 95.933478 1.686732 33.579334 -36.500684 51.719883 -15.976323 0.236282 -1.600817 -14.711652 -19.538148 -37.338558 11.588070 7.125000 0.000000 0.000000 18.826334 -66.336618 -9.836806
-1.232103 17.033186 -40.355818 3.216441 -3.571563 18.924654 -1.140804 -3.121573 -4.434395 -16.942898 -7.389424 -45.346079 0.832006 11.476651 29.685851 0.671373 -2.679469 5.633289 0.404769 -4.079067 -11.299853 -0.128964 1.051911 -1.113310 12.133989 -1.161490 -6.532462 -5.432452 -14.274746 45.688892 -0.913960 8.928880 18.299540 -1.085227 6.616950 -18.586867 -6.267517 1.734734 -9.851048 -0.651311 2.952748 -9.556682 0.284931 1.731705 0.901755 -0.939865 -1.828026 -8.691796 3.360618 -2.642444 10.167808 -0.313305 -1.081875 3.141026 12.897481 7.951515 0.922783 -101.781273 24.525873 -35.786781 2.434533 -9.294947 -0.002692 -1.220289 0.113749 57.293949 7.135594 -15.295805 -1.960998 -7.125000 0.000000 0.000000 -13.302552 15.801270 9.438877 -13.153598 -7.174035 -0.214168 96.017241 1.257971 33.432849 -36.573292 51.770816 -16.022070 0.240163 -1.601465 -14.830304 -19.556006 -37.335023 11.598094 7.125000 0.000000 0.000000 18.799479 -66.337091 -9.822574
-1.225632 17.039932 -40.244306 3.327553 -3.428889 18.772828 -1.147831 -3.096999 -4.390294 -17.175056 -7.441783 -45.046269 0.918863 11.600213 30.107505 0.680982 -2.862192 5.292171 0.366903 -3.887318 -10.760262 -0.156817 1.073064 -1.167979 12.064485 -1.033799 -7.015999 -5.805216 -14.615235 47.073352 -0.969335 8.639848 19.415156 -1.048062 6.510067 -18.271786 -6.446887 1.652638 -9.700088 -0.663338 2.875912 -9.528224 0.317273 1.688969 0.903778 -0.984018 -1.824998 -8.670950 3.484516 -2.652799 10.100463 -0.251268 -1.086067 3.106308 12.897732 7.930559 0.916176 -101.774664 24.346129 -36.370885 2.497760 -9.419361 -0.006020 -1.230817 0.138183 57.451311 6.917516 -15.592632 -1.950244 -7.125000 0.000000 0.000000 -13.420341 15.519319 9.612189 -13.160549 -7.168996 -0.186433 96.128572 0.753038 33.361997 -36.501683 51.726683 -15.966236 0.244443 -1.600239 -15.038890 -19.534645 -37.000797 11.491996 7.125000 0.000000 0.000000 18.480173 -66.018831 -9.519933
-1.219091 17.047284 -40.133156 3.421804 -3.287466 18.619706 -1.156684 -3.074130 -4.344914 -17.401910 -7.467480 -44.731310 0.998591 11.710254 30.491117 0.691459 -3.041555 4.957117 0.337164 -3.729402 -10.316914 -0.182596 1.093554 -1.220009 12.010319 -0.908567 -7.509351 -6.180922 -14.950986 48.454828 -1.026908 8.383030 20.480969 -1.034634 6.469501 -18.152923 -6.594796 1.579187 -9.502019 -0.679084 2.799573 -9.519084 0.319934 1.647413 0.839074 -1.018115 -1.820116 -8.621271 3.611587 -2.662815 10.037458 -0.188621 -1.089660 3.070469 12.893203 7.905851 0.905950 -101.748468 24.218829 -36.959573 2.572436 -9.563020 -0.010252 -1.241666 0.164501 57.589951 6.678188 -15.912534 -1.937053 -7.125000 0.000000 0.000000 -13.549889 15.215023 9.801546 -13.165713 -7.159880 -0.158836 96.248142 0.225341 33.313748 -36.386975 51.654140 -15.880045 0.248843 -1.598453 -15.274351 -19.501563 -36.567744 11.351195 7.125000 0.000000 0.000000 18.073467 -65.605317 -9.131099
-1.211487 17.057625 -40.021442 3.521863 -3.145951 18.476336 -1.170416 -3.052701 -4.298471 -17.664788 -7.445700 -44.380668 1.061960 11.793057 30.797213 0.712248 -3.281654 4.651671 0.314794 -3.605359 -9.969209 -0.204568 1.114060 -1.272046 11.938938 -0.830144 -8.047901 -6.560836 -15.270122 49.808881 -1.090064 8.059565 21.453059 -1.044831 6.500024 -18.242468 -6.723633 1.512065 -9.295381 -0.701922 2.728530 -9.504609 0.289421 1.604137 0.790936 -1.017934 -1.819315 -8.644301 3.714698 -2.675567 9.983422 -0.144645 -1.093996 3.055499 12.890584 7.883332 0.892637 -101.694158 24.038673 -37.531649 2.647467 -9.702608 -0.017452 -1.247029 0.188674 57.746500 6.433566 -16.141877 -1.907544 -7.125000 0.000000 0.000000 -13.689314 14.996987 9.974680 -13.173802 -7.151266 -0.130622 96.435792 -0.234853 33.218941 -36.199489 51.539078 -15.747122 0.250172 -1.598464 -15.418176 -19.479561 -36.096620 11.205131 7.125000 0.000000 0.000000 17.639639 -65.154927 -8.724772
-1.203323 17.069542 -39.909430 3.624984 -3.004388 18.338107 -1.186719 -3.032030 -4.251467 -17.946651 -7.398899 -44.011222 1.116707 11.861505 31.062455 0.738472 -3.553762 4.361829 0.296307 -3.499167 -9.671910 -0.224533 1.134575 -1.324086 11.858485 -0.776390 -8.610271 -6.942967 -15.580501 51.148480 -1.156163 7.700974 22.375756 -1.067478 6.568013 -18.441849 -6.842418 1.448279 -9.084228 -0.728497 2.660278 -9.487322 0.241425 1.559956 0.751530 -0.999687 -1.820664 -8.705652 3.805180 -2.689761 9.934113 -0.110509 -1.098724 3.051528 12.888970 7.861966 0.877696 -101.625032 23.830662 -38.094970 2.722686 -9.840050 -0.026215 -1.249502 0.211716 57.912487 6.186154 -16.323493 -1.869436 -7.125000 0.000000 0.000000 -13.833944 14.824414 10.139263 -13.183431 -7.142916 -0.102082 96.659324 -0.659469 33.099599 -35.973647 51.401609 -15.589570 0.249882 -1.599421 -15.513705 -19.463399 -35.605432 11.056292 7.125000 0.000000 0.000000 17.191516 -64.685103 -8.309225
-1.194283 17.083429 -39.797774 3.738660 -2.918351 18.204076 -1.204498 -3.011601 -4.198935 -18.257275 -7.287361 -43.649809 1.163051 11.915774 31.286230 0.767013 -3.831696 4.016269 0.333231 -3.687000 -10.200383 -0.241250 1.152207 -1.370964 11.745184 -0.699659 -9.195704 -7.326649 -15.876713 52.453967 -1.224997 7.128759 23.213099 -1.010877 6.385519 -17.911068 -6.959734 1.414678 -8.764894 -0.769153 2.613689 -9.522005 0.164098 1.533199 0.538412 -0.975176 -1.815012 -8.714819 3.901725 -2.697741 9.900640 -0.073590 -1.099624 3.052125 12.873301 7.830438 0.851810 -101.498522 23.728411 -37.949400 2.787196 -9.962031 -0.023939 -1.265221 0.208540 57.429668 6.210458 -16.683503 -1.924105 -7.125000 0.000000 0.000000 -13.795651 14.478897 10.211912 -13.184648 -7.118445 -0.071728 96.880892 -1.242101 32.968634 -35.829947 51.306531 -15.483197 0.246903 -1.601780 -15.587026 -19.578990 -35.449368 11.079172 7.125000 0.000000 0.000000 16.911105 -64.567240 -8.119659
-1.184497 17.098996 -39.686421 3.861334 -2.879646 18.073625 -1.223536 -2.991379 -4.141690 -18.592417 -7.120638 -43.295244 1.202231 11.957955 31.474655 0.797531 -4.114596 3.623212 0.417390 -4.125478 -11.432792 -0.255197 1.167383 -1.413441 11.603881 -0.603340 -9.800798 -7.711653 -16.160848 53.730373 -1.296162 6.374437 23.977684 -0.886718 5.989499 -16.757854 -7.075797 1.406810 -8.353341 -0.821810 2.585566 -9.600991 0.061767 1.521295 0.177212 -0.945324 -1.803393 -8.679501 4.003439 -2.700424 9.880666 -0.034300 -1.097260 3.056616 12.845650 7.790248 0.816594 -101.323096 23.716315 -37.199529 2.842576 -10.070830 -0.012251 -1.292230 0.183014 56.393766 6.466387 -17.195589 -2.057861 -7.125000 0.000000 0.000000 -13.601424 13.985952 10.206191 -13.178694 -7.080230 -0.039826 97.100788 -1.959434 32.827761 -35.756268 51.247591 -15.420449 0.241631 -1.605333 -15.641417 -19.806896 -35.578985 11.248436 7.125000 0.000000 0.000000 16.773661 -64.749411 -8.122732
-1.175271 17.114327 -39.575909 3.960955 -2.885674 17.947764 -1.241142 -2.975792 -4.092928 -18.903129 -6.899610 -42.942785 1.237229 11.994849 31.642067 0.827527 -4.372033 3.197025 0.512053 -4.569620 -12.687996 -0.269392 1.184099 -1.463707 11.484966 -0.467668 -10.391257 -8.095412 -16.436620 54.979310 -1.351889 5.455932 24.559191 -0.730487 5.412947 -15.101000 -7.160786 1.404000 -8.157948 -0.873183 2.586252 -9.600498 -0.036443 1.511758 0.087424 -0.915745 -1.777491 -8.634516 4.112988 -2.684056 9.785872 0.009287 -1.087726 3.008348 12.836147 7.761908 0.796168 -101.191969 23.494250 -36.722922 2.878884 -10.147868 -0.007424 -1.307209 0.156240 55.597282 6.717753 -17.441929 -2.155888 -7.125000 0.000000 0.000000 -13.427179 13.747126 10.140058 -13.188731 -7.069570 -0.004103 97.344282 -2.509435 32.705706 -35.636158 51.172157 -15.328544 0.234944 -1.618170 -15.800484 -20.091296 -35.955414 11.519303 7.125000 0.000000 0.000000 16.816287 -65.173531 -8.312503
